<svg width="134" height="133" viewBox="0 0 134 133" fill="none" xmlns="http://www.w3.org/2000/svg">
<path d="M27.5116 4.15778C24.0937 4.15778 21.2853 6.96589 21.2853 10.3839V91.4226H112.715V24.9307H98.1759C94.758 24.9307 91.9334 22.1223 91.9334 18.7044V4.15778H27.5116ZM96.0897 5.35913V18.7044C96.0897 19.8915 96.9887 20.7746 98.1759 20.7746H111.493L96.0897 5.35913ZM33.7459 20.7746H44.1488C45.2964 20.7787 46.2229 21.713 46.2187 22.8607V33.2474C46.2229 34.3951 45.2964 35.3292 44.1488 35.3337H33.7459C32.5982 35.3296 31.6718 34.3951 31.6759 33.2474V22.8607C31.6718 21.713 32.5983 20.7787 33.7459 20.7746ZM54.5353 20.7746H83.6169C86.4499 20.7118 86.4499 24.9936 83.6169 24.9307H54.5353C51.7023 24.9936 51.7023 20.7117 54.5353 20.7746ZM10.8825 24.9348C7.46461 24.9348 4.65625 27.7432 4.65625 31.1611V105.978C4.65625 109.396 7.46461 112.208 10.8825 112.208H123.101C126.519 112.208 129.344 109.396 129.344 105.978V31.1611C129.344 27.7433 126.519 24.9348 123.101 24.9348H116.871V33.2352H118.941C119.215 33.2341 119.487 33.2875 119.741 33.392C119.994 33.4964 120.225 33.6501 120.418 33.844C120.612 34.038 120.766 34.2683 120.871 34.5219C120.975 34.7755 121.028 35.0472 121.027 35.3215V93.5049C121.027 93.7781 120.972 94.0485 120.867 94.3007C120.762 94.5528 120.608 94.7818 120.414 94.9744C120.22 95.1671 119.991 95.3197 119.738 95.4234C119.485 95.5271 119.214 95.58 118.941 95.5789H15.0428C14.4931 95.5778 13.9662 95.3588 13.5775 94.9701C13.1887 94.5814 12.9699 94.0546 12.9688 93.5049V35.3215C12.9677 35.0483 13.0206 34.7775 13.1243 34.5248C13.228 34.272 13.3805 34.0421 13.5732 33.8483C13.7658 33.6546 13.9948 33.5005 14.247 33.3953C14.4991 33.2901 14.7696 33.2358 15.0428 33.2352H17.1291V24.9348H10.8825ZM54.5353 31.1611H83.6209C86.3972 31.1632 86.3972 35.3235 83.6209 35.3215H54.5353C51.759 35.3194 51.759 31.1591 54.5353 31.1611ZM91.9415 31.1611H100.246C103.022 31.1632 103.022 35.3235 100.246 35.3215H91.9415C89.1653 35.3194 89.1653 31.1591 91.9415 31.1611ZM54.5353 43.6298H100.246C103.019 43.6298 103.019 47.7902 100.246 47.7902H54.5353C51.7617 47.7902 51.7617 43.6298 54.5353 43.6298ZM46.3324 45.6675C47.9166 45.7382 49.2134 47.7431 47.6921 49.2636L39.3755 57.576C38.5635 58.3899 37.2449 58.3899 36.4329 57.576L32.2726 53.4197C30.3081 51.4552 33.2548 48.5087 35.2193 50.4731L37.9022 53.1601L44.7454 46.3331C45.2432 45.8367 45.8043 45.6439 46.3324 45.6675ZM54.5353 54.0285H83.6209C86.3972 54.0306 86.3972 58.1909 83.6209 58.1889H54.5353C51.759 58.1868 51.759 54.0265 54.5353 54.0285ZM91.9415 54.0285H100.246C103.022 54.0306 103.022 58.1909 100.246 58.1889H91.9415C89.1653 58.1868 89.1653 54.0265 91.9415 54.0285ZM54.5353 66.4934H100.246C103.022 66.4954 103.022 70.6556 100.246 70.6535H54.5353C51.759 70.6515 51.759 66.4913 54.5353 66.4934ZM33.6445 66.509H44.1488C45.2901 66.5131 46.2146 67.4376 46.2187 68.579V78.9657C46.2229 80.1133 45.2964 81.0476 44.1488 81.0517H33.7459C32.5983 81.0476 31.6718 80.1133 31.6759 78.9657V68.5787C31.6749 67.5104 32.482 66.6155 33.6445 66.509ZM54.5353 76.8911H83.6209C86.3972 76.8932 86.3972 81.0536 83.6209 81.0515H54.5353C51.759 81.0495 51.759 76.8891 54.5353 76.8911ZM91.9415 76.8911H100.246C103.022 76.8932 103.022 81.0536 100.246 81.0515H91.9415C89.1653 81.0495 89.1653 76.8891 91.9415 76.8911ZM62.8437 99.7384H71.1562C71.6992 99.7508 72.2157 99.9751 72.5953 100.364C72.9749 100.752 73.1874 101.273 73.1874 101.817C73.1874 102.36 72.9749 102.881 72.5953 103.27C72.2157 103.658 71.6992 103.882 71.1562 103.895H62.8437C62.5669 103.901 62.2915 103.852 62.0338 103.75C61.7762 103.649 61.5414 103.497 61.3433 103.303C61.1453 103.11 60.9879 102.878 60.8804 102.623C60.773 102.368 60.7176 102.093 60.7176 101.817C60.7176 101.54 60.773 101.265 60.8804 101.01C60.9879 100.755 61.1453 100.524 61.3433 100.33C61.5414 100.136 61.7762 99.9843 62.0338 99.8827C62.2915 99.7811 62.5669 99.7321 62.8437 99.7384ZM52.9402 116.367C52.2917 117.807 51.5344 119.199 50.7241 120.414C49.2136 122.68 47.9906 124.033 47.3836 124.68H41.957C39.0857 124.813 39.2828 128.973 42.0544 128.84H91.9294C94.701 128.84 94.701 124.68 91.9294 124.68H86.6164C86.0094 124.033 84.7865 122.68 83.276 120.414C82.4654 119.198 81.7084 117.808 81.0599 116.367H52.9402Z" fill="#9814BC"/>
</svg>
