<svg width="22" height="18" viewBox="0 0 22 18" fill="none" xmlns="http://www.w3.org/2000/svg">
<path d="M10.9999 9.77344C8.86759 9.77344 7.13281 11.5083 7.13281 13.6406C7.13281 15.773 8.86759 17.5078 10.9999 17.5078C13.1322 17.5078 14.867 15.773 14.867 13.6406C14.867 11.5083 13.1322 9.77344 10.9999 9.77344ZM10.9999 15.7891C9.81526 15.7891 8.85152 14.8253 8.85152 13.6406C8.85152 12.456 9.81526 11.4922 10.9999 11.4922C12.1846 11.4922 13.1483 12.456 13.1483 13.6406C13.1483 14.8253 12.1846 15.7891 10.9999 15.7891Z" fill="white"/>
<path d="M21.9075 11.605C20.9597 9.72775 19.4577 8.13744 17.5629 7.00388L19.8891 4.67764C20.2247 4.34206 20.2247 3.79794 19.8891 3.46231C19.5535 3.12673 19.0094 3.12673 18.6738 3.46231L15.9448 6.19139C14.6585 5.65905 13.278 5.33884 11.8593 5.24668V1.35156C11.8593 0.876929 11.4746 0.492188 11 0.492188C10.5253 0.492188 10.1406 0.876929 10.1406 1.35156V5.24663C8.72199 5.3388 7.3414 5.659 6.05518 6.19134L3.32619 3.46227C2.99056 3.12664 2.4464 3.12664 2.11082 3.46227C1.77528 3.79786 1.77528 4.34197 2.11086 4.6776L4.43706 7.00384C2.54222 8.1374 1.04021 9.72771 0.0924059 11.605C-0.121492 12.0287 0.0485778 12.5455 0.472249 12.7595C0.895792 12.9734 1.41283 12.8034 1.62669 12.3797C3.22074 9.22244 6.77314 6.93749 11 6.93749C15.2301 6.93749 18.7807 9.22519 20.3733 12.3797C20.5876 12.8041 21.1047 12.9731 21.5277 12.7595C21.9515 12.5456 22.1215 12.0287 21.9075 11.605Z" fill="white"/>
</svg>
