<svg width="134" height="134" viewBox="0 0 134 134" fill="none" xmlns="http://www.w3.org/2000/svg">
<path d="M70.9258 90.5547C73.0936 90.5547 74.8516 88.797 74.8516 86.6289V70.9258C74.8516 68.758 73.0944 67 70.9258 67H63.0742C60.9064 67 59.1484 68.7572 59.1484 70.9258V86.6289C59.1484 88.7967 60.9061 90.5547 63.0742 90.5547H70.9258Z" fill="#262626"/>
<path d="M122.223 23.8164H94.4805C94.4805 23.0258 94.4805 19.1 94.4805 19.8906C94.4805 13.3963 89.1977 8.11328 82.7031 8.11328C81.851 8.11328 50.1309 8.11328 51.2969 8.11328C44.8026 8.11328 39.5195 13.3961 39.5195 19.8906C39.5195 20.6813 39.5195 24.6071 39.5195 23.8164H11.7773C5.28305 23.8164 0 29.0992 0 35.5938C0 43.2823 0.942188 50.0155 2.81295 55.7537C4.68372 61.4919 7.48332 66.2353 11.1984 69.9443C17.4501 76.1876 25.4132 78.7773 34.3545 78.7773H51.2969C51.2969 77.9867 51.2969 70.1351 51.2969 70.9258C51.2969 64.4315 56.5797 59.1484 63.0742 59.1484C63.8649 59.1484 71.7164 59.1484 70.9258 59.1484C77.4201 59.1484 82.7031 64.4312 82.7031 70.9258C82.7031 71.7164 82.7031 79.568 82.7031 78.7773H91.4259C99.2409 78.4526 112.024 80.829 122.798 70.1053C126.515 66.4056 129.315 61.6539 131.187 55.8887C133.058 50.1236 134 43.3456 134 35.5938C134 29.0995 128.717 23.8164 122.223 23.8164ZM47.3711 19.8906C47.3711 17.7246 49.1306 15.9648 51.2969 15.9648H82.7031C84.8691 15.9648 86.6289 17.7244 86.6289 19.8906C86.6289 20.6813 86.6289 24.6071 86.6289 23.8164H47.3711C47.3711 23.0258 47.3711 19.1 47.3711 19.8906Z" fill="#9814BC"/>
<path d="M91.5333 86.6289H82.7031C82.7031 93.1232 77.4203 98.4062 70.9258 98.4062C70.1351 98.4062 62.2836 98.4062 63.0742 98.4062C56.5799 98.4062 51.2969 93.1234 51.2969 86.6289C50.4 86.6289 33.4194 86.6289 34.3888 86.6289C23.1914 86.6289 13.3563 83.1931 5.65077 75.4996C3.47405 73.3265 1.61533 70.8797 0 68.2628V121.961C0 124.131 1.75587 125.887 3.92578 125.887H130.074C132.244 125.887 134 124.131 134 121.961V68.4243C132.363 71.081 130.497 73.522 128.337 75.672C115.95 87.9945 102.758 86.0987 91.5333 86.6289Z" fill="#9814BC"/>
</svg>
