<svg width="125" height="125" viewBox="0 0 125 125" fill="none" xmlns="http://www.w3.org/2000/svg">
<path d="M93.505 109.688C93.505 106.699 93.505 10.0463 93.505 7.63815C93.505 5.61571 91.8653 3.97607 89.8429 3.97607H3.66207C1.63963 3.97607 0 5.61571 0 7.63815V102.364C0 112.46 8.21403 120.674 18.3104 120.674H97.177C94.8729 117.611 93.505 113.807 93.505 109.688ZM19.5311 74.2879H31.2497C33.2721 74.2879 34.9118 75.9275 34.9118 77.95C34.9118 79.9724 33.2721 81.612 31.2497 81.612H19.5311C17.5086 81.612 15.869 79.9724 15.869 77.95C15.869 75.9275 17.5086 74.2879 19.5311 74.2879ZM15.869 62.3251C15.869 60.3027 17.5086 58.663 19.5311 58.663H31.2497C33.2721 58.663 34.9118 60.3027 34.9118 62.3251C34.9118 64.3476 33.2721 65.9872 31.2497 65.9872H19.5311C17.5086 65.9872 15.869 64.3476 15.869 62.3251ZM74.218 103.096H19.5311C17.5086 103.096 15.869 101.457 15.869 99.4341C15.869 97.4117 17.5086 95.772 19.5311 95.772H74.218C76.2405 95.772 77.8801 97.4117 77.8801 99.4341C77.8801 101.457 76.2405 103.096 74.218 103.096ZM77.8801 83.8093C77.8801 85.8317 76.2405 87.4714 74.218 87.4714H46.8745C44.8521 87.4714 43.2125 85.8317 43.2125 83.8093V56.4658C43.2125 54.4434 44.8521 52.8037 46.8745 52.8037H74.218C76.2405 52.8037 77.8801 54.4434 77.8801 56.4658V83.8093ZM74.218 44.503H19.5311C17.5086 44.503 15.869 42.8634 15.869 40.841C15.869 38.8185 17.5086 37.1789 19.5311 37.1789H74.218C76.2405 37.1789 77.8801 38.8185 77.8801 40.841C77.8801 42.8634 76.2405 44.503 74.218 44.503ZM74.218 28.8782H19.5311C17.5086 28.8782 15.869 27.2385 15.869 25.2161C15.869 23.1937 17.5086 21.554 19.5311 21.554H74.218C76.2405 21.554 77.8801 23.1937 77.8801 25.2161C77.8801 27.2385 76.2405 28.8782 74.218 28.8782Z" fill="#9814BC"/>
<path d="M50.5366 60.1278H70.5562V80.1473H50.5366V60.1278Z" fill="#9814BC"/>
<path d="M121.337 29.3664H100.829C100.829 112.347 100.817 109.69 100.851 109.69C101.167 114.803 104.661 119.052 109.381 120.492C116.931 122.796 124.673 117.335 124.987 109.42C125.006 109.42 124.999 111.25 124.999 33.0285C124.999 31.006 123.359 29.3664 121.337 29.3664Z" fill="#9814BC"/>
</svg>
