<svg width="145" height="145" viewBox="0 0 145 145" fill="none" xmlns="http://www.w3.org/2000/svg">
<path d="M136.504 10.1542H8.49609C3.8037 10.1542 0 13.9579 0 18.6503V82.5044H145V18.6503C145 13.9579 141.196 10.1542 136.504 10.1542ZM51.6208 59.3005C53.5585 60.6233 54.057 63.2664 52.7341 65.2041C51.9117 66.4089 50.5784 67.0574 49.2218 67.0574C48.3969 67.0574 47.5634 66.8175 46.8305 66.3174L31.2523 55.6823C29.8507 54.7253 29.0142 53.1408 29.0142 51.4441C29.0144 49.7472 29.8513 48.1632 31.2526 47.2066L46.8305 36.5714C48.7681 35.2489 51.4113 35.747 52.7341 37.6847C54.057 39.6224 53.5585 42.2655 51.6208 43.5884L40.1132 51.4447L51.6208 59.3005ZM84.7301 38.357L67.6762 68.6946C66.8965 70.0814 65.4545 70.8617 63.9694 70.8617C63.2642 70.8617 62.5499 70.6861 61.8918 70.3159C59.8465 69.1661 59.1206 66.5762 60.2702 64.5312L77.3241 34.1937C78.4739 32.1484 81.0641 31.4228 83.1088 32.572C85.1538 33.7221 85.8796 36.312 84.7301 38.357ZM113.748 55.682L98.1695 66.3174C97.4369 66.8175 96.6031 67.0574 95.7782 67.0574C94.4213 67.0574 93.0886 66.4091 92.2659 65.2041C90.943 63.2664 91.4415 60.6233 93.3792 59.3005L104.887 51.4441L93.3792 43.5878C91.4415 42.2649 90.943 39.6218 92.2659 37.6841C93.5887 35.7467 96.2319 35.2483 98.1695 36.5709L113.748 47.2063C115.149 48.1624 115.986 49.7466 115.986 51.4436C115.986 53.1408 115.15 54.725 113.748 55.682Z" fill="#9814BC"/>
<path d="M0 91.0005V100.29C0 104.983 3.8037 108.787 8.49609 108.787H59.8958V126.35H49.251C46.9049 126.35 45.003 128.252 45.003 130.598C45.003 132.944 46.9049 134.846 49.251 134.846H95.7493C98.0953 134.846 99.9973 132.944 99.9973 130.598C99.9973 128.252 98.0953 126.35 95.7493 126.35H85.1045V108.787H136.504C141.196 108.787 145 104.983 145 100.29V91.0005H0Z" fill="#262626"/>
</svg>
