<svg width="116" height="116" viewBox="0 0 116 116" fill="none" xmlns="http://www.w3.org/2000/svg">
<g clip-path="url(#clip0_138_103)">
<path d="M115.979 38.6667H0V43.5C0 46.0638 1.01845 48.5225 2.8313 50.3354C4.64415 52.1482 7.10291 53.1667 9.66667 53.1667H24.1667C26.7304 53.1667 29.1892 52.1482 31.002 50.3354C32.8149 48.5225 33.8333 46.0638 33.8333 43.5C33.8333 46.0638 34.8518 48.5225 36.6646 50.3354C38.4775 52.1482 40.9362 53.1667 43.5 53.1667H72.5C75.0638 53.1667 77.5225 52.1482 79.3354 50.3354C81.1482 48.5225 82.1667 46.0638 82.1667 43.5C82.1667 46.0638 83.1851 48.5225 84.998 50.3354C86.8108 52.1482 89.2696 53.1667 91.8333 53.1667H106.333C108.897 53.1667 111.356 52.1482 113.169 50.3354C114.982 48.5225 116 46.0638 116 43.5V38.6667H115.979Z" fill="#9814BC"/>
<path d="M114.812 33.8333L106.147 3.50417C105.858 2.49452 105.249 1.60639 104.41 0.974145C103.572 0.341901 102.55 -5.85623e-05 101.5 7.52249e-09H79.3621L86.1288 33.8333H114.812Z" fill="#9814BC"/>
<path d="M36.6379 7.52249e-09H14.5C13.4499 -5.85623e-05 12.4283 0.341901 11.5898 0.974145C10.7513 1.60639 10.1415 2.49452 9.85275 3.50417L1.18779 33.8333H29.8712L36.6379 7.52249e-09Z" fill="#9814BC"/>
<path d="M69.5045 0H46.4955L39.7288 33.8333H76.2712L69.5045 0Z" fill="#9814BC"/>
<path d="M91.8333 58C88.2645 58.003 84.821 56.6845 82.1667 54.2989C79.5124 56.6845 76.0688 58.003 72.5 58H43.5C39.9312 58.003 36.4876 56.6845 33.8333 54.2989C31.179 56.6845 27.7355 58.003 24.1667 58H9.66666C8.01903 57.9965 6.38421 57.7105 4.83333 57.1542V111.167C4.83333 112.449 5.34255 113.678 6.24898 114.584C7.1554 115.491 8.38478 116 9.66666 116H19.3333V72.5C19.3333 71.2181 19.8426 69.9888 20.749 69.0823C21.6554 68.1759 22.8848 67.6667 24.1667 67.6667H48.3333C49.6152 67.6667 50.8446 68.1759 51.751 69.0823C52.6574 69.9888 53.1667 71.2181 53.1667 72.5V116H106.333C107.615 116 108.845 115.491 109.751 114.584C110.657 113.678 111.167 112.449 111.167 111.167V57.1542C109.616 57.7105 107.981 57.9965 106.333 58H91.8333ZM96.6667 87C96.6667 88.2819 96.1574 89.5113 95.251 90.4177C94.3446 91.3241 93.1152 91.8333 91.8333 91.8333H67.6667C66.3848 91.8333 65.1554 91.3241 64.249 90.4177C63.3425 89.5113 62.8333 88.2819 62.8333 87V72.5C62.8333 71.2181 63.3425 69.9888 64.249 69.0823C65.1554 68.1759 66.3848 67.6667 67.6667 67.6667H91.8333C93.1152 67.6667 94.3446 68.1759 95.251 69.0823C96.1574 69.9888 96.6667 71.2181 96.6667 72.5V87Z" fill="#9814BC"/>
</g>
<defs>
<clipPath id="clip0_138_103">
<rect width="116" height="116" fill="white"/>
</clipPath>
</defs>
</svg>
