<svg width="143" height="112" viewBox="0 0 143 112" fill="none" xmlns="http://www.w3.org/2000/svg">
<path d="M117.321 42.1935C115.462 18.6175 95.621 0 71.5 0C50.8671 0 33.1556 13.3585 27.4407 32.8415C11.1387 38.4822 0 53.8771 0 71.2727C0 93.7287 18.3295 112 40.8571 112H107.25C126.964 112 143 96.0145 143 76.3636C143 60.3324 132.428 46.5716 117.321 42.1935ZM95.5393 69.7811L75.1108 90.1447C74.1149 91.1375 72.8074 91.6364 71.5 91.6364C70.1926 91.6364 68.8851 91.1375 67.8893 90.1447L47.4607 69.7811C46 68.3251 45.5608 66.136 46.3524 64.232C47.144 62.3331 49.0081 61.0909 51.0714 61.0909H61.2857V40.7273C61.2857 35.1069 65.8617 30.5455 71.5 30.5455C77.1383 30.5455 81.7143 35.1069 81.7143 40.7273V61.0909H91.9286C93.9919 61.0909 95.856 62.3331 96.6476 64.232C97.4392 66.136 97 68.3251 95.5393 69.7811Z" fill="#9814BC"/>
</svg>
