<svg width="199" height="161" viewBox="0 0 199 161" fill="none" xmlns="http://www.w3.org/2000/svg">
<path d="M155.627 43.3185L149.457 20.4099L133.265 36.6016C132.302 37.5658 131.762 38.8726 131.762 40.2351C131.762 41.5977 132.302 42.9045 133.265 43.8687L155.066 65.6699C156.03 66.6335 157.337 67.1748 158.7 67.1748C160.063 67.1748 161.37 66.6335 162.333 65.6699L178.525 49.4782L155.627 43.3185Z" fill="#262626"/>
<path d="M185.673 51.4094L177.243 61.9431C176.67 62.6599 176.404 63.5752 176.506 64.4877C176.607 65.4001 177.066 66.235 177.783 66.8086C178.5 67.3822 179.415 67.6476 180.328 67.5464C181.24 67.4451 182.075 66.9856 182.649 66.2688L192.964 53.3784L185.673 51.4094Z" fill="#262626"/>
<path d="M198.944 51.3989L158.449 40.4948L147.545 0L188.04 10.9041L198.944 51.3989Z" fill="#262626"/>
<path d="M83.0527 95.3991V60.7941L117.658 78.0966L83.0527 95.3991Z" fill="#9814BC"/>
<path d="M128.04 150.767H120.153L116.693 140.386H109.398L112.858 150.767H80.9318L84.3923 140.386H77.0975L73.637 150.767H65.7852C65.8211 153.209 66.5041 155.597 67.7646 157.688H128.04C128.957 157.688 129.838 157.324 130.487 156.675C131.136 156.026 131.5 155.146 131.5 154.228C131.5 153.31 131.136 152.43 130.487 151.781C129.838 151.132 128.957 150.767 128.04 150.767Z" fill="#9814BC"/>
<path d="M155.724 116.152V129.994C155.724 131.83 154.995 133.59 153.697 134.888C152.399 136.186 150.639 136.915 148.803 136.915H76.9287L75.0254 134.077C73.5025 131.805 72.6895 129.131 72.6895 126.395C72.6895 123.659 73.5025 120.985 75.0254 118.713L76.7211 116.152H155.724Z" fill="#9814BC"/>
<path d="M152.624 68.1235L130.823 46.3223C130.015 45.5165 129.377 44.5561 128.947 43.4985H44.9852C43.1497 43.4985 41.3893 44.2277 40.0914 45.5257C38.7934 46.8236 38.0642 48.584 38.0642 50.4195V88.3294H68.7485L64.6478 94.4925C63.126 96.7643 62.3135 99.437 62.3135 102.171C62.3135 104.906 63.126 107.579 64.6478 109.85L66.5477 112.702H155.721V70.0856C154.558 69.6652 153.501 68.9955 152.624 68.1235ZM79.5903 101.002V55.195L125.394 78.0967L79.5903 101.002Z" fill="#9814BC"/>
<path d="M65.2273 141.023L65.7499 140.237H13.8423C11.089 140.237 8.44837 141.331 6.50146 143.278C4.55455 145.225 3.46078 147.865 3.46078 150.619C3.46078 153.372 4.55455 156.012 6.50146 157.959C8.44837 159.906 11.089 161 13.8423 161H65.7499L65.2273 160.214C63.3332 157.373 62.3225 154.034 62.3225 150.619C62.3225 147.203 63.3332 143.864 65.2273 141.023ZM51.9079 154.079H17.3028C16.385 154.079 15.5048 153.714 14.8559 153.065C14.2069 152.416 13.8423 151.536 13.8423 150.619C13.8423 149.701 14.2069 148.821 14.8559 148.172C15.5048 147.523 16.385 147.158 17.3028 147.158H51.9079C52.8256 147.158 53.7058 147.523 54.3548 148.172C55.0038 148.821 55.3684 149.701 55.3684 150.619C55.3684 151.536 55.0038 152.416 54.3548 153.065C53.7058 153.714 52.8256 154.079 51.9079 154.079Z" fill="#262626"/>
<path d="M72.1494 116.799L72.6719 116.013H20.7643C18.011 116.013 15.3704 117.107 13.4235 119.054C11.4766 121.001 10.3828 123.641 10.3828 126.395C10.3828 129.148 11.4766 131.789 13.4235 133.736C15.3704 135.683 18.011 136.776 20.7643 136.776H72.6719L72.1494 135.991C70.2553 133.149 69.2446 129.81 69.2446 126.395C69.2446 122.98 70.2553 119.641 72.1494 116.799ZM58.8299 129.855H24.2248C23.307 129.855 22.4269 129.491 21.7779 128.842C21.1289 128.193 20.7643 127.313 20.7643 126.395C20.7643 125.477 21.1289 124.597 21.7779 123.948C22.4269 123.299 23.307 122.934 24.2248 122.934H58.8299C59.7477 122.934 60.6279 123.299 61.2768 123.948C61.9258 124.597 62.2904 125.477 62.2904 126.395C62.2904 127.313 61.9258 128.193 61.2768 128.842C60.6279 129.491 59.7477 129.855 58.8299 129.855Z" fill="#262626"/>
<path d="M61.7666 92.5754L62.2891 91.7899H10.3815C7.62817 91.7899 4.98759 92.8837 3.04068 94.8306C1.09376 96.7775 0 99.4181 0 102.171C0 104.925 1.09376 107.565 3.04068 109.512C4.98759 111.459 7.62817 112.553 10.3815 112.553H62.2891L61.7666 111.767C59.8725 108.925 58.8618 105.587 58.8618 102.171C58.8618 98.7562 59.8725 95.4173 61.7666 92.5754ZM48.4471 105.632H13.842C12.9242 105.632 12.044 105.267 11.3951 104.618C10.7461 103.969 10.3815 103.089 10.3815 102.171C10.3815 101.254 10.7461 100.373 11.3951 99.7245C12.044 99.0755 12.9242 98.7109 13.842 98.7109H48.4471C49.3649 98.7109 50.245 99.0755 50.894 99.7245C51.543 100.373 51.9076 101.254 51.9076 102.171C51.9076 103.089 51.543 103.969 50.894 104.618C50.245 105.267 49.3649 105.632 48.4471 105.632Z" fill="#262626"/>
</svg>
